# xmcd
#
# Track frame offsets:
# 150
# 45443
# 64747
# 83285
# 103401
# 116532
# 129927
# 149784
# 172478
# 181478
# 185549
# 198278
# 235054
# 272847
#
# Disc length: 4182 seconds
#
# Revision: 0
# Processed by: cddbd v1.5.1PL0 Copyright (c) Steve Scherf et al.
# Submitted via: Audion 3.0.2 (http://www.panic.com/audion/)
#
DISCID=cc10540e
DTITLE=Prince - The Rainbow Children
DYEAR=1900
DGENRE=
TTITLE0=j
TTITLE1=Muse
TTITLE2=dig
TTITLE3=the wo
TTITLE4=s
TTITLE5=s
TTITLE6=s
TTITLE7=s
TTITLE8=h
TTITLE9=h
TTITLE10=j
TTITLE11=k
TTITLE12=kl
TTITLE13=l
EXTD=
EXTT0=
EXTT1=
EXTT2=
EXTT3=
EXTT4=
EXTT5=
EXTT6=
EXTT7=
EXTT8=
EXTT9=
EXTT10=
EXTT11=
EXTT12=
EXTT13=
PLAYORDER=
